<svg width="56" height="62" viewBox="0 0 56 62" fill="none" xmlns="http://www.w3.org/2000/svg">
<path d="M52.9146 49.9524C50.8952 51.0897 48.304 52.5471 46.431 53.6007C44.4939 54.6905 42.1683 54.9241 40.0499 54.2429L15.5219 46.3426C13.4676 45.6808 12.0869 43.7863 12.0869 41.6282V22.2051L15.1983 23.2078V41.6289C15.1983 42.4314 15.7115 43.1364 16.4751 43.3819L41.0038 51.2822C42.298 51.6992 43.7205 51.5562 44.9053 50.8896C46.7783 49.8367 49.3688 48.3794 51.3882 47.2428C51.3889 47.2421 51.3903 47.2414 51.391 47.2407C51.391 47.2386 51.391 47.2358 51.3903 47.233C51.3889 47.233 51.3882 47.2323 51.3861 47.2323L27.4968 39.537C25.4426 38.876 24.0619 36.9814 24.0619 34.8233V26.0632L27.1733 27.0652V34.824C27.1733 35.6266 27.6865 36.3315 28.4501 36.577L52.3393 44.2716C53.5373 44.6572 54.3595 45.6746 54.4857 46.9262C54.6119 48.1778 54.0087 49.3381 52.9132 49.9545L52.9146 49.9524Z" fill="#001641"/>
<path d="M55.1847 10.3226C54.9211 11.1405 54.0446 11.5902 53.2267 11.3267L27.8033 3.13836C27.6004 3.07282 27.4456 3.15301 27.371 3.20739C27.2971 3.26109 27.1729 3.38381 27.1729 3.59788V9.21875L24.0615 8.21605V3.59788C24.0615 2.43619 24.6005 1.3763 25.5391 0.692957C26.4784 0.00821529 27.6513 -0.179356 28.7572 0.176263L54.1806 8.36527C54.9985 8.62884 55.4476 9.50534 55.1847 10.3226Z" fill="#001641"/>
<path d="M40.8556 21.069L38.1835 22.5716L34.3455 24.7297C32.407 25.8196 30.0814 26.0532 27.9651 25.372L27.1736 25.1167L24.0622 24.1147L15.198 21.2593L12.0865 20.2566L3.74388 17.5693C3.54026 17.5037 3.38546 17.5846 3.31154 17.6383C3.23693 17.6927 3.11211 17.8147 3.11211 18.0288V48.4224C3.11211 49.2249 3.62533 49.9299 4.38889 50.1754L30.1205 58.4641C30.9384 58.7276 31.3875 59.6034 31.1239 60.4214C30.8603 61.2393 29.9845 61.6883 29.1665 61.4248L3.43497 53.1374C1.38068 52.4757 0 50.5812 0 48.4231V18.0295C0 16.8678 0.539024 15.8093 1.47761 15.1245C2.41689 14.4398 3.58977 14.2529 4.69571 14.6085L11.2344 16.7144L12.0844 16.9884L15.0815 17.9535L15.1959 17.9897L18.2382 18.9694L24.0601 20.8444L27.1715 21.8471L28.9169 22.4085C30.2118 22.8254 31.6336 22.6825 32.8191 22.0159L35.3915 20.569L39.3299 18.3544C39.3299 18.3544 39.332 18.3537 39.3327 18.353C39.3327 18.3502 39.3327 18.3467 39.332 18.3439C39.3313 18.3439 39.3299 18.3432 39.3278 18.3432L27.1715 14.4272L24.0601 13.4252L17.0305 11.1611L15.8262 10.7727C15.6233 10.7072 15.4685 10.7881 15.3946 10.8418C15.32 10.8962 15.1952 11.0182 15.1952 11.2323V16.0478L12.0837 15.0457V11.2316C12.0837 10.0699 12.6228 9.01138 13.5614 8.32664C14.4462 7.68164 15.5375 7.47803 16.5856 7.75486C16.6512 7.77089 16.7153 7.78972 16.7802 7.81064L24.0594 10.1549L27.1708 11.1576L40.281 15.3798C41.479 15.7654 42.3018 16.7834 42.4274 18.035C42.5536 19.2874 41.9504 20.4484 40.8528 21.0655L40.8556 21.069Z" fill="#001641"/>
<path d="M27.1722 16.3755V19.899L24.0615 18.8963V15.3735L27.1722 16.3755Z" fill="#001641"/>
</svg>
