<?xml version="1.0" encoding="UTF-8"?>
<svg version="1.1" xmlns="http://www.w3.org/2000/svg" width="45" height="44">
<path d="M0 0 C5.44800534 3.24584226 10.04615097 8.16489482 12.4140625 14.08984375 C13.27824348 21.47631696 13.53237071 28.36162156 8.91015625 34.4765625 C4.6293836 39.09264372 0.43922263 42.75874904 -5.9765625 43.4609375 C-13.65186689 43.59300245 -19.73230684 43.63920153 -25.5859375 38.08984375 C-30.75653389 32.87926853 -32.886878 28.69799114 -33.0234375 21.33984375 C-32.90728904 13.88311284 -31.2805365 9.76554455 -26.05859375 4.5703125 C-18.84791143 -1.79637138 -9.12651194 -3.21220133 0 0 Z " fill="#F7F8FA" transform="translate(32.5859375,0.91015625)"/>
<path d="M0 0 C4.96916636 0.51405169 9.29026351 1.23384882 14 3 C14 3.99 14 4.98 14 6 C11.35261084 7.4606285 10.10551666 8 7 8 C7.06920147 9.95272411 7.06920147 9.95272411 8 12 C10.53672381 13.36394535 10.53672381 13.36394535 13.5625 14.25 C14.57441406 14.58515625 15.58632813 14.9203125 16.62890625 15.265625 C17.41136719 15.50796875 18.19382812 15.7503125 19 16 C19 16.99 19 17.98 19 19 C16 21 16 21 12.875 20.875 C8.18195707 19.81528063 4.34002457 18.06985787 0 16 C0 12.7 0 9.4 0 6 C-0.99 5.67 -1.98 5.34 -3 5 C-3 9.62 -3 14.24 -3 19 C-0.16796875 19.71614583 2.6640625 20.43229167 5.49609375 21.1484375 C8 22 8 22 9 24 C7.03964825 23.55037804 5.08175691 23.09001752 3.125 22.625 C1.48917969 22.24214844 1.48917969 22.24214844 -0.1796875 21.8515625 C-3 21 -3 21 -5 19 C-5.14507695 16.25514407 -5.18652423 13.61519457 -5.125 10.875 C-5.11146484 9.74384766 -5.11146484 9.74384766 -5.09765625 8.58984375 C-5.0740687 6.72642746 -5.03819719 4.86317407 -5 3 C-3.35 3 -1.7 3 0 3 C0 2.01 0 1.02 0 0 Z " fill="#385281" transform="translate(15,12)"/>
<path d="M0 0 C2.475 0.495 2.475 0.495 5 1 C5 2.98 5 4.96 5 7 C5.54269531 7.19335938 6.08539063 7.38671875 6.64453125 7.5859375 C7.71767578 7.97652344 7.71767578 7.97652344 8.8125 8.375 C9.52019531 8.63023438 10.22789063 8.88546875 10.95703125 9.1484375 C13 10 13 10 16 12 C9.73695156 13.46581985 5.98768353 12.3029552 0 10 C0 6.7 0 3.4 0 0 Z " fill="#F2F4F7" transform="translate(17,18)"/>
<path d="M0 0 C3.3 0.99 6.6 1.98 10 3 C9.67 3.66 9.34 4.32 9 5 C7.741875 4.87625 6.48375 4.7525 5.1875 4.625 C4.12595703 4.52058594 4.12595703 4.52058594 3.04296875 4.4140625 C1 4 1 4 -2 2 C-1.34 2 -0.68 2 0 2 C0 1.34 0 0.68 0 0 Z " fill="#DADFE8" transform="translate(17,13)"/>
</svg>
